<svg width="74" height="59" viewBox="0 0 74 59" fill="none" xmlns="http://www.w3.org/2000/svg">
<g filter="url(#filter0_f_1058_77)">
<path d="M24.4439 24.7243L18.209 20.0954C17.3106 19.4283 17.7824 18.0015 18.9014 18.0015H27.6444C27.9043 18.0015 28.1568 18.0887 28.3613 18.2491L33.8229 22.5336C34.6713 23.1992 34.2335 24.5612 33.1562 24.6077L25.1863 24.9521C24.9201 24.9636 24.6579 24.8832 24.4439 24.7243Z" fill="#1B52BB"/>
</g>
<g filter="url(#filter1_ii_1058_77)">
<path d="M31.19 57.3L4.8341 26.0555C2.92309 23.79 4.53351 20.3247 7.49734 20.3247H41.9193C42.979 20.3247 43.9811 20.807 44.6423 21.6352L67.8619 50.7211C69.6147 52.9167 68.1816 56.1774 65.3788 56.3708L34.0931 58.5294C32.9847 58.6058 31.9063 58.1492 31.19 57.3Z" fill="#D9D9D9" fill-opacity="0.1"/>
</g>
<g filter="url(#filter2_f_1058_77)">
<path d="M20.2896 31.7288L18.572 30.5812C17.6171 29.9431 18.0688 28.4541 19.2173 28.4541H22.0516C22.2915 28.4541 22.5255 28.5284 22.7215 28.6667L24.2038 29.7133C25.1107 30.3536 24.6884 31.7794 23.579 31.8226L20.98 31.9237C20.735 31.9332 20.4934 31.865 20.2896 31.7288Z" fill="white" fill-opacity="0.33"/>
</g>
<g filter="url(#filter3_f_1058_77)">
<path d="M28.4195 41.0203L26.7019 39.8727C25.747 39.2346 26.1987 37.7456 27.3472 37.7456H30.1815C30.4214 37.7456 30.6554 37.8199 30.8514 37.9582L32.3337 39.0048C33.2406 39.6451 32.8183 41.0709 31.7089 41.1141L29.1098 41.2152C28.8649 41.2247 28.6233 41.1565 28.4195 41.0203Z" fill="white" fill-opacity="0.33"/>
</g>
<g filter="url(#filter4_f_1058_77)">
<path d="M23.774 36.3748L22.0564 35.2272C21.1015 34.5891 21.5532 33.1001 22.7017 33.1001H25.536C25.7759 33.1001 26.0099 33.1744 26.2059 33.3127L27.6882 34.3593C28.5951 34.9996 28.1728 36.4254 27.0634 36.4686L24.4643 36.5697C24.2194 36.5792 23.9778 36.511 23.774 36.3748Z" fill="white" fill-opacity="0.33"/>
</g>
<g filter="url(#filter5_f_1058_77)">
<path d="M31.9036 45.6658L30.1861 44.5182C29.2311 43.8801 29.6828 42.3911 30.8313 42.3911H33.6656C33.9055 42.3911 34.1395 42.4654 34.3355 42.6038L35.8178 43.6503C36.7247 44.2906 36.3024 45.7165 35.1931 45.7596L32.594 45.8607C32.3491 45.8702 32.1074 45.802 31.9036 45.6658Z" fill="white" fill-opacity="0.33"/>
</g>
<g filter="url(#filter6_f_1058_77)">
<line x1="27.27" y1="29.9812" x2="45.2846" y2="29.3359" stroke="white" stroke-opacity="0.33" stroke-width="0.580702" stroke-linecap="round"/>
</g>
<g filter="url(#filter7_f_1058_77)">
<line x1="29.6055" y1="34.6267" x2="47.6201" y2="33.9814" stroke="white" stroke-opacity="0.33" stroke-width="0.580702" stroke-linecap="round"/>
</g>
<g filter="url(#filter8_f_1058_77)">
<line x1="34.2512" y1="39.2727" x2="52.2658" y2="38.6274" stroke="white" stroke-opacity="0.33" stroke-width="0.580702" stroke-linecap="round"/>
</g>
<g filter="url(#filter9_f_1058_77)">
<line x1="37.7351" y1="43.9182" x2="55.7497" y2="43.2729" stroke="white" stroke-opacity="0.33" stroke-width="0.580702" stroke-linecap="round"/>
</g>
<g filter="url(#filter10_f_1058_77)">
<path d="M25.6053 18.9172L19.3704 14.2882C18.472 13.6212 18.9437 12.1943 20.0627 12.1943H28.8058C29.0657 12.1943 29.3181 12.2815 29.5226 12.442L34.9842 16.7265C35.8327 17.3921 35.3949 18.754 34.3175 18.8006L26.3477 19.145C26.0814 19.1565 25.8193 19.076 25.6053 18.9172Z" fill="#1B52BB"/>
</g>
<g filter="url(#filter11_ii_1058_77)">
<path d="M31.4803 51.4923L5.12438 20.2478C3.21338 17.9824 4.82379 14.5171 7.78762 14.5171H42.2096C43.2693 14.5171 44.2714 14.9994 44.9325 15.8275L68.1522 44.9134C69.905 47.109 68.4718 50.3698 65.6691 50.5632L34.3834 52.7218C33.275 52.7982 32.1966 52.3416 31.4803 51.4923Z" fill="#D9D9D9" fill-opacity="0.4"/>
</g>
<g filter="url(#filter12_f_1058_77)">
<path d="M21.451 25.9217L19.7334 24.774C18.7785 24.136 19.2302 22.647 20.3787 22.647H23.213C23.4529 22.647 23.6869 22.7213 23.8829 22.8596L25.3652 23.9062C26.2721 24.5465 25.8498 25.9723 24.7404 26.0155L22.1413 26.1165C21.8964 26.1261 21.6548 26.0578 21.451 25.9217Z" fill="white" fill-opacity="0.35"/>
</g>
<g filter="url(#filter13_f_1058_77)">
<path d="M29.5811 35.2127L27.8636 34.0651C26.9086 33.427 27.3603 31.938 28.5088 31.938H31.3431C31.583 31.938 31.817 32.0123 32.013 32.1506L33.4953 33.1972C34.4022 33.8375 33.9799 35.2633 32.8705 35.3065L30.2715 35.4075C30.0265 35.4171 29.7849 35.3489 29.5811 35.2127Z" fill="white" fill-opacity="0.35"/>
</g>
<g filter="url(#filter14_f_1058_77)">
<path d="M24.9353 30.5672L23.2178 29.4196C22.2629 28.7815 22.7146 27.2925 23.863 27.2925H26.6974C26.9373 27.2925 27.1713 27.3668 27.3672 27.5051L28.8495 28.5517C29.7564 29.192 29.3341 30.6178 28.2248 30.661L25.6257 30.762C25.3808 30.7716 25.1391 30.7034 24.9353 30.5672Z" fill="white" fill-opacity="0.35"/>
</g>
<g filter="url(#filter15_f_1058_77)">
<path d="M33.0652 39.8587L31.3477 38.7111C30.3928 38.073 30.8445 36.584 31.9929 36.584H34.8273C35.0671 36.584 35.3011 36.6583 35.4971 36.7966L36.9794 37.8432C37.8863 38.4835 37.464 39.9093 36.3547 39.9525L33.7556 40.0535C33.5107 40.0631 33.269 39.9949 33.0652 39.8587Z" fill="white" fill-opacity="0.35"/>
</g>
<g filter="url(#filter16_f_1058_77)">
<line x1="28.4316" y1="24.1736" x2="46.4462" y2="23.5283" stroke="white" stroke-opacity="0.35" stroke-width="0.580702" stroke-linecap="round"/>
</g>
<g filter="url(#filter17_f_1058_77)">
<line x1="30.7668" y1="28.8191" x2="48.7814" y2="28.1738" stroke="white" stroke-opacity="0.35" stroke-width="0.580702" stroke-linecap="round"/>
</g>
<g filter="url(#filter18_f_1058_77)">
<line x1="35.4126" y1="33.4651" x2="53.4272" y2="32.8198" stroke="white" stroke-opacity="0.35" stroke-width="0.580702" stroke-linecap="round"/>
</g>
<g filter="url(#filter19_f_1058_77)">
<line x1="38.8965" y1="38.1106" x2="56.9111" y2="37.4653" stroke="white" stroke-opacity="0.35" stroke-width="0.580702" stroke-linecap="round"/>
</g>
<g filter="url(#filter20_f_1058_77)">
<path d="M25.8956 13.1105L19.6607 8.4816C18.7622 7.81457 19.234 6.3877 20.353 6.3877H29.0961C29.356 6.3877 29.6084 6.47489 29.8129 6.63532L35.2745 10.9199C36.123 11.5855 35.6852 12.9474 34.6078 12.994L26.638 13.3383C26.3717 13.3498 26.1096 13.2694 25.8956 13.1105Z" fill="#1B52BB"/>
</g>
<g filter="url(#filter21_ii_1058_77)">
<path d="M32.6422 45.6852L6.28625 14.4407C4.37524 12.1752 5.98566 8.70996 8.94949 8.70996H43.3714C44.4312 8.70996 45.4333 9.19223 46.0944 10.0204L69.314 39.1063C71.0668 41.3019 69.6337 44.5626 66.8309 44.756L35.5452 46.9146C34.4369 46.9911 33.3585 46.5344 32.6422 45.6852Z" fill="#D9D9D9" fill-opacity="0.7"/>
</g>
<path d="M21.7412 20.115L20.0237 18.9674C19.0688 18.3293 19.5205 16.8403 20.669 16.8403H23.5033C23.7432 16.8403 23.9772 16.9146 24.1731 17.053L25.6554 18.0995C26.5623 18.7398 26.14 20.1657 25.0307 20.2088L22.4316 20.3099C22.1867 20.3194 21.945 20.2512 21.7412 20.115Z" fill="white" fill-opacity="0.33"/>
<path d="M29.8714 29.406L28.1538 28.2584C27.1989 27.6204 27.6506 26.1313 28.7991 26.1313H31.6334C31.8733 26.1313 32.1073 26.2056 32.3033 26.344L33.7856 27.3905C34.6925 28.0309 34.2702 29.4567 33.1608 29.4998L30.5617 29.6009C30.3168 29.6104 30.0752 29.5422 29.8714 29.406Z" fill="white" fill-opacity="0.33"/>
<path d="M25.2256 24.7601L23.5081 23.6124C22.5532 22.9744 23.0049 21.4854 24.1533 21.4854H26.9877C27.2275 21.4854 27.4615 21.5596 27.6575 21.698L29.1398 22.7445C30.0467 23.3849 29.6244 24.8107 28.5151 24.8538L25.916 24.9549C25.6711 24.9644 25.4294 24.8962 25.2256 24.7601Z" fill="white" fill-opacity="0.33"/>
<path d="M33.3555 34.0516L31.638 32.9039C30.683 32.2659 31.1347 30.7769 32.2832 30.7769H35.1175C35.3574 30.7769 35.5914 30.8511 35.7874 30.9895L37.2697 32.036C38.1766 32.6764 37.7543 34.1022 36.645 34.1453L34.0459 34.2464C33.801 34.2559 33.5593 34.1877 33.3555 34.0516Z" fill="white" fill-opacity="0.33"/>
<line x1="28.7219" y1="18.3669" x2="46.7365" y2="17.7217" stroke="white" stroke-opacity="0.3" stroke-width="0.580702" stroke-linecap="round"/>
<line x1="31.0574" y1="23.0124" x2="49.072" y2="22.3672" stroke="white" stroke-opacity="0.3" stroke-width="0.580702" stroke-linecap="round"/>
<line x1="35.7029" y1="27.6584" x2="53.7175" y2="27.0132" stroke="white" stroke-opacity="0.3" stroke-width="0.580702" stroke-linecap="round"/>
<line x1="39.1868" y1="32.3039" x2="57.2014" y2="31.6587" stroke="white" stroke-opacity="0.3" stroke-width="0.580702" stroke-linecap="round"/>
<defs>
<filter id="filter0_f_1058_77" x="16.5764" y="16.8401" width="18.8543" height="9.27447" filterUnits="userSpaceOnUse" color-interpolation-filters="sRGB">
<feFlood flood-opacity="0" result="BackgroundImageFix"/>
<feBlend mode="normal" in="SourceGraphic" in2="BackgroundImageFix" result="shape"/>
<feGaussianBlur stdDeviation="0.580702" result="effect1_foregroundBlur_1058_77"/>
</filter>
<filter id="filter1_ii_1058_77" x="4.00635" y="19.1633" width="65.7832" height="40.5357" filterUnits="userSpaceOnUse" color-interpolation-filters="sRGB">
<feFlood flood-opacity="0" result="BackgroundImageFix"/>
<feBlend mode="normal" in="SourceGraphic" in2="BackgroundImageFix" result="shape"/>
<feColorMatrix in="SourceAlpha" type="matrix" values="0 0 0 0 0 0 0 0 0 0 0 0 0 0 0 0 0 0 127 0" result="hardAlpha"/>
<feOffset dx="3.48421" dy="1.1614"/>
<feGaussianBlur stdDeviation="0.580702"/>
<feComposite in2="hardAlpha" operator="arithmetic" k2="-1" k3="1"/>
<feColorMatrix type="matrix" values="0 0 0 0 1 0 0 0 0 1 0 0 0 0 1 0 0 0 0.5 0"/>
<feBlend mode="normal" in2="shape" result="effect1_innerShadow_1058_77"/>
<feColorMatrix in="SourceAlpha" type="matrix" values="0 0 0 0 0 0 0 0 0 0 0 0 0 0 0 0 0 0 127 0" result="hardAlpha"/>
<feOffset dx="1.1614" dy="-1.1614"/>
<feGaussianBlur stdDeviation="0.580702"/>
<feComposite in2="hardAlpha" operator="arithmetic" k2="-1" k3="1"/>
<feColorMatrix type="matrix" values="0 0 0 0 1 0 0 0 0 1 0 0 0 0 1 0 0 0 0.5 0"/>
<feBlend mode="normal" in2="effect1_innerShadow_1058_77" result="effect2_innerShadow_1058_77"/>
</filter>
<filter id="filter2_f_1058_77" x="17.473" y="27.8734" width="7.80496" height="4.63162" filterUnits="userSpaceOnUse" color-interpolation-filters="sRGB">
<feFlood flood-opacity="0" result="BackgroundImageFix"/>
<feBlend mode="normal" in="SourceGraphic" in2="BackgroundImageFix" result="shape"/>
<feGaussianBlur stdDeviation="0.290351" result="effect1_foregroundBlur_1058_77"/>
</filter>
<filter id="filter3_f_1058_77" x="25.6029" y="37.1649" width="7.80496" height="4.63162" filterUnits="userSpaceOnUse" color-interpolation-filters="sRGB">
<feFlood flood-opacity="0" result="BackgroundImageFix"/>
<feBlend mode="normal" in="SourceGraphic" in2="BackgroundImageFix" result="shape"/>
<feGaussianBlur stdDeviation="0.290351" result="effect1_foregroundBlur_1058_77"/>
</filter>
<filter id="filter4_f_1058_77" x="20.9574" y="32.5194" width="7.80496" height="4.63162" filterUnits="userSpaceOnUse" color-interpolation-filters="sRGB">
<feFlood flood-opacity="0" result="BackgroundImageFix"/>
<feBlend mode="normal" in="SourceGraphic" in2="BackgroundImageFix" result="shape"/>
<feGaussianBlur stdDeviation="0.290351" result="effect1_foregroundBlur_1058_77"/>
</filter>
<filter id="filter5_f_1058_77" x="29.087" y="41.8104" width="7.80496" height="4.63162" filterUnits="userSpaceOnUse" color-interpolation-filters="sRGB">
<feFlood flood-opacity="0" result="BackgroundImageFix"/>
<feBlend mode="normal" in="SourceGraphic" in2="BackgroundImageFix" result="shape"/>
<feGaussianBlur stdDeviation="0.290351" result="effect1_foregroundBlur_1058_77"/>
</filter>
<filter id="filter6_f_1058_77" x="26.399" y="28.4647" width="19.7566" height="2.38748" filterUnits="userSpaceOnUse" color-interpolation-filters="sRGB">
<feFlood flood-opacity="0" result="BackgroundImageFix"/>
<feBlend mode="normal" in="SourceGraphic" in2="BackgroundImageFix" result="shape"/>
<feGaussianBlur stdDeviation="0.290351" result="effect1_foregroundBlur_1058_77"/>
</filter>
<filter id="filter7_f_1058_77" x="28.7345" y="33.1102" width="19.7566" height="2.38748" filterUnits="userSpaceOnUse" color-interpolation-filters="sRGB">
<feFlood flood-opacity="0" result="BackgroundImageFix"/>
<feBlend mode="normal" in="SourceGraphic" in2="BackgroundImageFix" result="shape"/>
<feGaussianBlur stdDeviation="0.290351" result="effect1_foregroundBlur_1058_77"/>
</filter>
<filter id="filter8_f_1058_77" x="33.3802" y="37.7562" width="19.7566" height="2.38748" filterUnits="userSpaceOnUse" color-interpolation-filters="sRGB">
<feFlood flood-opacity="0" result="BackgroundImageFix"/>
<feBlend mode="normal" in="SourceGraphic" in2="BackgroundImageFix" result="shape"/>
<feGaussianBlur stdDeviation="0.290351" result="effect1_foregroundBlur_1058_77"/>
</filter>
<filter id="filter9_f_1058_77" x="36.8641" y="42.4017" width="19.7566" height="2.38748" filterUnits="userSpaceOnUse" color-interpolation-filters="sRGB">
<feFlood flood-opacity="0" result="BackgroundImageFix"/>
<feBlend mode="normal" in="SourceGraphic" in2="BackgroundImageFix" result="shape"/>
<feGaussianBlur stdDeviation="0.290351" result="effect1_foregroundBlur_1058_77"/>
</filter>
<filter id="filter10_f_1058_77" x="17.7378" y="11.0329" width="18.8543" height="9.27447" filterUnits="userSpaceOnUse" color-interpolation-filters="sRGB">
<feFlood flood-opacity="0" result="BackgroundImageFix"/>
<feBlend mode="normal" in="SourceGraphic" in2="BackgroundImageFix" result="shape"/>
<feGaussianBlur stdDeviation="0.580702" result="effect1_foregroundBlur_1058_77"/>
</filter>
<filter id="filter11_ii_1058_77" x="4.29663" y="13.3557" width="65.7832" height="40.5357" filterUnits="userSpaceOnUse" color-interpolation-filters="sRGB">
<feFlood flood-opacity="0" result="BackgroundImageFix"/>
<feBlend mode="normal" in="SourceGraphic" in2="BackgroundImageFix" result="shape"/>
<feColorMatrix in="SourceAlpha" type="matrix" values="0 0 0 0 0 0 0 0 0 0 0 0 0 0 0 0 0 0 127 0" result="hardAlpha"/>
<feOffset dx="3.48421" dy="1.1614"/>
<feGaussianBlur stdDeviation="0.580702"/>
<feComposite in2="hardAlpha" operator="arithmetic" k2="-1" k3="1"/>
<feColorMatrix type="matrix" values="0 0 0 0 1 0 0 0 0 1 0 0 0 0 1 0 0 0 0.5 0"/>
<feBlend mode="normal" in2="shape" result="effect1_innerShadow_1058_77"/>
<feColorMatrix in="SourceAlpha" type="matrix" values="0 0 0 0 0 0 0 0 0 0 0 0 0 0 0 0 0 0 127 0" result="hardAlpha"/>
<feOffset dx="1.1614" dy="-1.1614"/>
<feGaussianBlur stdDeviation="0.580702"/>
<feComposite in2="hardAlpha" operator="arithmetic" k2="-1" k3="1"/>
<feColorMatrix type="matrix" values="0 0 0 0 1 0 0 0 0 1 0 0 0 0 1 0 0 0 0.5 0"/>
<feBlend mode="normal" in2="effect1_innerShadow_1058_77" result="effect2_innerShadow_1058_77"/>
</filter>
<filter id="filter12_f_1058_77" x="18.6344" y="22.0663" width="7.80496" height="4.63162" filterUnits="userSpaceOnUse" color-interpolation-filters="sRGB">
<feFlood flood-opacity="0" result="BackgroundImageFix"/>
<feBlend mode="normal" in="SourceGraphic" in2="BackgroundImageFix" result="shape"/>
<feGaussianBlur stdDeviation="0.290351" result="effect1_foregroundBlur_1058_77"/>
</filter>
<filter id="filter13_f_1058_77" x="26.7645" y="31.3573" width="7.80496" height="4.63162" filterUnits="userSpaceOnUse" color-interpolation-filters="sRGB">
<feFlood flood-opacity="0" result="BackgroundImageFix"/>
<feBlend mode="normal" in="SourceGraphic" in2="BackgroundImageFix" result="shape"/>
<feGaussianBlur stdDeviation="0.290351" result="effect1_foregroundBlur_1058_77"/>
</filter>
<filter id="filter14_f_1058_77" x="22.1188" y="26.7118" width="7.80496" height="4.63162" filterUnits="userSpaceOnUse" color-interpolation-filters="sRGB">
<feFlood flood-opacity="0" result="BackgroundImageFix"/>
<feBlend mode="normal" in="SourceGraphic" in2="BackgroundImageFix" result="shape"/>
<feGaussianBlur stdDeviation="0.290351" result="effect1_foregroundBlur_1058_77"/>
</filter>
<filter id="filter15_f_1058_77" x="30.2486" y="36.0033" width="7.80496" height="4.63162" filterUnits="userSpaceOnUse" color-interpolation-filters="sRGB">
<feFlood flood-opacity="0" result="BackgroundImageFix"/>
<feBlend mode="normal" in="SourceGraphic" in2="BackgroundImageFix" result="shape"/>
<feGaussianBlur stdDeviation="0.290351" result="effect1_foregroundBlur_1058_77"/>
</filter>
<filter id="filter16_f_1058_77" x="27.5607" y="22.6571" width="19.7566" height="2.38748" filterUnits="userSpaceOnUse" color-interpolation-filters="sRGB">
<feFlood flood-opacity="0" result="BackgroundImageFix"/>
<feBlend mode="normal" in="SourceGraphic" in2="BackgroundImageFix" result="shape"/>
<feGaussianBlur stdDeviation="0.290351" result="effect1_foregroundBlur_1058_77"/>
</filter>
<filter id="filter17_f_1058_77" x="29.8959" y="27.3026" width="19.7566" height="2.38748" filterUnits="userSpaceOnUse" color-interpolation-filters="sRGB">
<feFlood flood-opacity="0" result="BackgroundImageFix"/>
<feBlend mode="normal" in="SourceGraphic" in2="BackgroundImageFix" result="shape"/>
<feGaussianBlur stdDeviation="0.290351" result="effect1_foregroundBlur_1058_77"/>
</filter>
<filter id="filter18_f_1058_77" x="34.5416" y="31.9486" width="19.7566" height="2.38748" filterUnits="userSpaceOnUse" color-interpolation-filters="sRGB">
<feFlood flood-opacity="0" result="BackgroundImageFix"/>
<feBlend mode="normal" in="SourceGraphic" in2="BackgroundImageFix" result="shape"/>
<feGaussianBlur stdDeviation="0.290351" result="effect1_foregroundBlur_1058_77"/>
</filter>
<filter id="filter19_f_1058_77" x="38.0255" y="36.5941" width="19.7566" height="2.38748" filterUnits="userSpaceOnUse" color-interpolation-filters="sRGB">
<feFlood flood-opacity="0" result="BackgroundImageFix"/>
<feBlend mode="normal" in="SourceGraphic" in2="BackgroundImageFix" result="shape"/>
<feGaussianBlur stdDeviation="0.290351" result="effect1_foregroundBlur_1058_77"/>
</filter>
<filter id="filter20_f_1058_77" x="12.8017" y="-2.67029e-05" width="29.3069" height="19.7271" filterUnits="userSpaceOnUse" color-interpolation-filters="sRGB">
<feFlood flood-opacity="0" result="BackgroundImageFix"/>
<feBlend mode="normal" in="SourceGraphic" in2="BackgroundImageFix" result="shape"/>
<feGaussianBlur stdDeviation="3.19386" result="effect1_foregroundBlur_1058_77"/>
</filter>
<filter id="filter21_ii_1058_77" x="5.4585" y="7.54856" width="65.7832" height="40.5357" filterUnits="userSpaceOnUse" color-interpolation-filters="sRGB">
<feFlood flood-opacity="0" result="BackgroundImageFix"/>
<feBlend mode="normal" in="SourceGraphic" in2="BackgroundImageFix" result="shape"/>
<feColorMatrix in="SourceAlpha" type="matrix" values="0 0 0 0 0 0 0 0 0 0 0 0 0 0 0 0 0 0 127 0" result="hardAlpha"/>
<feOffset dx="3.48421" dy="1.1614"/>
<feGaussianBlur stdDeviation="0.580702"/>
<feComposite in2="hardAlpha" operator="arithmetic" k2="-1" k3="1"/>
<feColorMatrix type="matrix" values="0 0 0 0 1 0 0 0 0 1 0 0 0 0 1 0 0 0 0.5 0"/>
<feBlend mode="normal" in2="shape" result="effect1_innerShadow_1058_77"/>
<feColorMatrix in="SourceAlpha" type="matrix" values="0 0 0 0 0 0 0 0 0 0 0 0 0 0 0 0 0 0 127 0" result="hardAlpha"/>
<feOffset dx="1.1614" dy="-1.1614"/>
<feGaussianBlur stdDeviation="0.580702"/>
<feComposite in2="hardAlpha" operator="arithmetic" k2="-1" k3="1"/>
<feColorMatrix type="matrix" values="0 0 0 0 1 0 0 0 0 1 0 0 0 0 1 0 0 0 0.5 0"/>
<feBlend mode="normal" in2="effect1_innerShadow_1058_77" result="effect2_innerShadow_1058_77"/>
</filter>
</defs>
</svg>
