<svg width="73" height="55" viewBox="0 0 73 55" fill="none" xmlns="http://www.w3.org/2000/svg">
<g filter="url(#filter0_f_1058_61)">
<path d="M3.94434 25.2442C3.94434 23.0658 5.7103 21.2998 7.88873 21.2998H28.1037C40.902 21.2998 51.277 31.6748 51.277 44.4731V46.9383C51.277 49.1168 49.5111 50.8827 47.3326 50.8827H7.88873C5.7103 50.8827 3.94434 49.1168 3.94434 46.9383V25.2442Z" fill="#1B52BB"/>
</g>
<path d="M3.94434 4.53619C3.94434 2.35776 5.7103 0.591797 7.88873 0.591797H30.569C31.1136 0.591797 31.5551 1.03329 31.5551 1.57789V28.2025C31.5551 30.381 29.7891 32.1469 27.6107 32.1469H7.88873C5.7103 32.1469 3.94434 30.381 3.94434 28.2025V4.53619Z" fill="#1B52BB"/>
<g filter="url(#filter1_f_1058_61)">
<rect x="44.3745" y="6.5083" width="9.86098" height="44.3744" rx="0.986098" fill="#1B52BB"/>
</g>
<g filter="url(#filter2_f_1058_61)">
<path d="M31.5552 1.57764V2.56396C31.5552 4.74236 33.3211 6.5083 35.4995 6.5083H53.2495V46.938C53.2495 49.1163 51.4834 50.8821 49.3052 50.8823H9.86084C7.68244 50.8823 5.9165 49.1164 5.9165 46.938V5.52197C5.91653 3.34359 7.68246 1.57767 9.86084 1.57764H31.5552Z" fill="#1B52BB"/>
</g>
<g filter="url(#filter3_ii_1058_61)">
<path d="M52.9973 22.2861L46.6653 39.0498H22.1116L27.7004 22.2861H52.9973Z" stroke="white" stroke-opacity="0.7" stroke-width="27.6107"/>
</g>
<defs>
<filter id="filter0_f_1058_61" x="-5.50747e-05" y="17.3554" width="55.2215" height="37.4718" filterUnits="userSpaceOnUse" color-interpolation-filters="sRGB">
<feFlood flood-opacity="0" result="BackgroundImageFix"/>
<feBlend mode="normal" in="SourceGraphic" in2="BackgroundImageFix" result="shape"/>
<feGaussianBlur stdDeviation="1.9722" result="effect1_foregroundBlur_1058_61"/>
</filter>
<filter id="filter1_f_1058_61" x="40.4301" y="2.56391" width="17.7499" height="52.2633" filterUnits="userSpaceOnUse" color-interpolation-filters="sRGB">
<feFlood flood-opacity="0" result="BackgroundImageFix"/>
<feBlend mode="normal" in="SourceGraphic" in2="BackgroundImageFix" result="shape"/>
<feGaussianBlur stdDeviation="1.9722" result="effect1_foregroundBlur_1058_61"/>
</filter>
<filter id="filter2_f_1058_61" x="4.33875" y="-0.000119686" width="50.4885" height="52.4602" filterUnits="userSpaceOnUse" color-interpolation-filters="sRGB">
<feFlood flood-opacity="0" result="BackgroundImageFix"/>
<feBlend mode="normal" in="SourceGraphic" in2="BackgroundImageFix" result="shape"/>
<feGaussianBlur stdDeviation="0.788878" result="effect1_foregroundBlur_1058_61"/>
</filter>
<filter id="filter3_ii_1058_61" x="3.87865" y="7.49437" width="67.6832" height="46.1495" filterUnits="userSpaceOnUse" color-interpolation-filters="sRGB">
<feFlood flood-opacity="0" result="BackgroundImageFix"/>
<feBlend mode="normal" in="SourceGraphic" in2="BackgroundImageFix" result="shape"/>
<feColorMatrix in="SourceAlpha" type="matrix" values="0 0 0 0 0 0 0 0 0 0 0 0 0 0 0 0 0 0 127 0" result="hardAlpha"/>
<feOffset dx="0.986098" dy="0.986098"/>
<feGaussianBlur stdDeviation="0.394439"/>
<feComposite in2="hardAlpha" operator="arithmetic" k2="-1" k3="1"/>
<feColorMatrix type="matrix" values="0 0 0 0 1 0 0 0 0 1 0 0 0 0 1 0 0 0 0.5 0"/>
<feBlend mode="normal" in2="shape" result="effect1_innerShadow_1058_61"/>
<feColorMatrix in="SourceAlpha" type="matrix" values="0 0 0 0 0 0 0 0 0 0 0 0 0 0 0 0 0 0 127 0" result="hardAlpha"/>
<feOffset dx="-0.986098" dy="-0.986098"/>
<feGaussianBlur stdDeviation="0.493049"/>
<feComposite in2="hardAlpha" operator="arithmetic" k2="-1" k3="1"/>
<feColorMatrix type="matrix" values="0 0 0 0 1 0 0 0 0 1 0 0 0 0 1 0 0 0 0.5 0"/>
<feBlend mode="normal" in2="effect1_innerShadow_1058_61" result="effect2_innerShadow_1058_61"/>
</filter>
</defs>
</svg>
