<?xml version="1.0" standalone="no"?>
<!DOCTYPE svg PUBLIC "-//W3C//DTD SVG 20010904//EN"
 "http://www.w3.org/TR/2001/REC-SVG-20010904/DTD/svg10.dtd">
<svg version="1.0" xmlns="http://www.w3.org/2000/svg"
 width="907.000000pt" height="189.000000pt" viewBox="0 0 907.000000 189.000000"
 preserveAspectRatio="xMidYMid meet">

<g transform="translate(0.000000,189.000000) scale(0.100000,-0.100000)"
fill="#000000" stroke="none">
<path d="M935 1479 c-55 -15 -101 -31 -103 -36 -18 -51 -151 -318 -159 -320
-6 -2 -14 9 -17 24 -25 105 -109 345 -122 350 -9 3 -49 -4 -89 -17 l-73 -23
-20 -86 c-11 -47 -41 -185 -66 -306 -26 -121 -56 -258 -67 -305 -12 -47 -24
-102 -26 -122 l-5 -37 87 -27 c80 -25 89 -26 100 -11 6 9 34 111 61 226 26
116 51 205 55 198 4 -7 23 -70 44 -142 55 -191 62 -207 94 -203 23 3 40 29
141 215 103 189 116 208 122 185 5 -15 18 -112 29 -217 25 -223 34 -259 68
-263 13 -2 61 8 107 22 83 26 84 27 84 60 0 37 -36 315 -80 621 -16 115 -30
213 -30 217 0 24 -42 23 -135 -3z"/>
<path d="M2125 1464 c-114 -65 -110 -59 -79 -112 26 -44 26 -48 20 -161 -4
-64 -16 -222 -27 -351 -25 -305 -26 -280 14 -279 17 0 63 13 102 28 l70 27 6
46 c4 25 10 105 14 177 4 72 11 131 15 131 4 0 68 -92 141 -205 74 -113 138
-205 143 -205 13 0 162 88 175 104 11 13 35 825 25 835 -9 9 -179 -31 -194
-45 -12 -12 -16 -56 -18 -246 l-3 -232 -140 255 c-78 140 -145 260 -151 267
-16 19 -27 15 -113 -34z"/>
<path d="M5751 1490 c-34 -10 -69 -24 -76 -31 -12 -14 -56 -123 -156 -386 -58
-156 -56 -153 -150 -153 -38 0 -39 -1 -33 -27 3 -16 17 -52 31 -80 l26 -52
-21 -58 c-21 -55 -21 -59 -4 -72 27 -21 135 -71 154 -71 11 0 26 26 50 85 l33
85 130 -2 130 -3 29 -82 c22 -60 35 -83 47 -83 16 0 229 68 238 76 2 2 -3 18
-12 36 -8 18 -57 161 -108 318 -93 288 -163 485 -182 508 -13 16 -49 14 -126
-8z m39 -450 c13 -58 25 -111 27 -117 4 -10 -11 -13 -53 -13 -92 0 -92 0 -48
133 21 64 42 113 45 109 4 -4 17 -54 29 -112z"/>
<path d="M1750 1489 c-47 -4 -144 -7 -216 -8 l-131 -1 -52 -86 c-29 -47 -50
-92 -47 -100 3 -9 20 -14 47 -14 l42 0 -6 -105 c-6 -103 -6 -105 -46 -158 -23
-30 -41 -59 -41 -65 0 -6 16 -14 35 -18 l35 -6 -7 -101 c-6 -92 -10 -107 -41
-160 -24 -40 -32 -61 -25 -68 14 -14 192 -29 371 -32 l144 -2 24 30 c23 29 84
137 84 149 0 3 -72 6 -159 6 l-159 0 4 38 c2 20 6 63 9 94 l6 57 72 3 72 3 29
60 c62 130 58 140 -52 133 -43 -3 -84 -3 -89 1 -7 3 -9 34 -6 77 l5 71 126 6
c69 4 130 11 135 16 14 14 67 149 67 172 0 17 -7 19 -72 17 -40 0 -111 -4
-158 -9z"/>
<path d="M3109 1486 c-110 -32 -183 -87 -217 -165 -10 -22 -16 -65 -16 -112 0
-115 22 -150 160 -265 87 -73 114 -101 114 -119 0 -33 -36 -55 -92 -55 -55 0
-89 11 -141 47 -20 14 -39 24 -42 22 -2 -3 -1 -56 2 -118 l6 -114 43 -18 c99
-44 259 -32 361 28 95 55 144 128 151 226 8 110 -36 174 -205 291 -82 57 -88
64 -91 99 -4 47 9 64 55 73 49 9 103 -10 163 -57 28 -22 55 -38 58 -34 10 9 2
206 -9 226 -24 46 -204 73 -300 45z"/>
<path d="M3601 1489 c-50 -10 -71 -24 -71 -48 0 -26 240 -865 250 -875 16 -16
58 4 112 53 43 40 65 73 118 180 35 72 67 131 71 131 3 0 27 -75 53 -167 26
-93 50 -176 52 -185 7 -25 40 -22 104 10 40 19 60 37 72 62 9 19 76 214 148
434 91 276 128 402 121 409 -7 7 -36 5 -92 -7 -132 -28 -117 -10 -183 -225
-32 -105 -62 -191 -65 -191 -3 0 -22 71 -40 158 -19 86 -39 170 -44 186 l-10
29 -77 -7 c-93 -8 -137 -21 -145 -45 -3 -10 5 -63 18 -118 l24 -100 -50 -86
c-28 -48 -52 -85 -53 -84 -2 1 -23 83 -49 182 -26 99 -55 210 -66 248 l-20 67
-67 -1 c-37 -1 -87 -5 -111 -10z"/>
<path d="M5130 1489 c-47 -4 -144 -7 -216 -8 l-131 -1 -52 -86 c-29 -47 -50
-92 -47 -100 3 -9 20 -14 47 -14 l42 0 -6 -105 c-6 -103 -6 -105 -46 -158 -23
-30 -41 -59 -41 -65 0 -6 16 -14 35 -18 l35 -6 -7 -101 c-6 -92 -10 -107 -41
-160 -24 -40 -32 -61 -25 -68 14 -14 192 -29 371 -32 l144 -2 24 30 c23 29 84
137 84 149 0 3 -72 6 -159 6 l-159 0 4 38 c2 20 6 63 9 94 l6 57 72 3 72 3 29
60 c62 130 58 140 -52 133 -43 -3 -84 -3 -89 1 -7 3 -9 34 -6 77 l5 71 126 6
c69 4 130 11 135 16 14 14 67 149 67 172 0 17 -7 19 -72 17 -40 0 -111 -4
-158 -9z"/>
<path d="M6510 1494 c-102 -17 -147 -26 -162 -30 -9 -3 -38 -42 -64 -87 -26
-45 -49 -86 -52 -91 -3 -5 23 -7 63 -3 l68 7 -6 -108 c-3 -59 -13 -204 -22
-322 -8 -118 -16 -233 -18 -255 -2 -35 1 -40 22 -43 23 -4 197 52 215 69 7 6
31 219 36 319 1 16 36 -45 103 -180 91 -182 105 -205 128 -208 24 -3 238 94
263 118 5 5 -3 11 -20 15 -16 3 -36 10 -44 14 -15 8 -84 117 -153 243 l-38 67
33 17 c63 32 116 84 144 139 47 97 23 196 -64 262 -23 18 -59 37 -80 44 -37
11 -304 21 -352 13z m254 -194 c28 -28 27 -85 -3 -134 -27 -44 -103 -96 -139
-96 -22 0 -24 3 -19 33 4 17 9 70 13 117 3 47 11 91 17 99 16 20 105 7 131
-19z"/>
<path d="M7395 1489 c-163 -25 -160 -23 -201 -97 -21 -37 -44 -78 -53 -91
l-15 -24 67 7 67 7 0 -63 c0 -35 -9 -180 -20 -323 -26 -344 -26 -345 4 -345
24 0 194 57 209 70 5 4 15 77 23 161 8 85 15 161 17 169 1 8 37 -57 80 -145
120 -249 120 -250 143 -253 23 -3 246 98 258 116 3 6 -6 13 -24 17 -41 9 -68
46 -178 246 l-42 77 43 25 c53 31 124 107 143 152 18 44 18 79 -1 143 -19 62
-71 111 -148 137 -61 21 -276 29 -372 14z m272 -193 c28 -33 29 -65 4 -114
-31 -60 -102 -112 -152 -112 -18 0 -21 4 -16 33 3 17 9 73 13 122 4 50 12 94
18 98 6 4 33 6 60 4 39 -3 55 -11 73 -31z"/>
<path d="M8365 803 c-55 -36 -64 -51 -65 -106 0 -42 5 -53 30 -77 89 -84 232
-1 205 120 -7 33 -57 80 -85 80 -10 0 -24 2 -32 4 -7 3 -31 -7 -53 -21z m83
-55 c17 -17 15 -74 -4 -92 -18 -19 -20 -19 -45 -6 -19 11 -26 60 -13 94 7 19
45 21 62 4z"/>
<path d="M8610 817 l-35 -12 -9 -103 c-5 -56 -6 -105 -3 -108 2 -3 20 -1 38 3
32 9 34 12 42 69 10 72 19 89 43 89 17 0 19 -7 16 -84 l-3 -84 32 7 c18 3 35
8 38 11 2 3 8 36 13 73 5 44 14 71 24 79 30 22 37 4 31 -84 l-6 -85 37 7 c20
4 38 8 39 9 2 1 6 41 9 89 6 76 5 90 -11 107 -20 22 -65 26 -97 9 -15 -8 -27
-8 -45 2 -18 10 -33 10 -63 2 -32 -8 -40 -8 -40 3 0 17 -4 17 -50 1z"/>
<path d="M8146 801 c-40 -26 -55 -57 -56 -109 0 -36 5 -49 30 -72 37 -35 73
-44 116 -30 28 10 34 16 34 40 0 27 -2 28 -35 23 -43 -7 -65 9 -65 48 0 38 35
61 78 53 30 -6 32 -5 32 24 0 18 -6 32 -16 36 -31 12 -90 5 -118 -13z"/>
<path d="M7977 663 c-4 -3 -7 -21 -7 -40 0 -33 1 -33 45 -33 l45 0 0 40 c0 40
0 40 -38 40 -21 0 -42 -3 -45 -7z"/>
<path d="M1035 401 c-3 -6 -1 -11 4 -11 16 0 14 -167 -1 -173 -7 -3 3 -5 22
-5 19 0 29 2 23 5 -17 6 -17 85 -1 101 7 7 25 12 40 12 27 0 28 -2 28 -54 0
-34 -5 -56 -12 -59 -7 -3 3 -5 22 -5 19 0 29 2 23 5 -8 3 -13 24 -13 52 0 63
-26 91 -70 74 -28 -11 -29 -10 -32 25 -3 35 -20 53 -33 33z"/>
<path d="M2085 401 c-3 -7 2 -11 14 -11 20 0 21 -6 21 -84 0 -85 0 -85 -27
-89 -16 -2 4 -4 42 -4 39 0 56 2 38 4 l-32 4 -3 92 c-3 86 -5 92 -25 95 -11 2
-24 -2 -28 -7z"/>
<path d="M3855 401 c-3 -6 -1 -11 4 -11 6 0 11 -13 11 -30 0 -29 -13 -40 -25
-20 -10 17 -50 11 -73 -10 -35 -32 -33 -74 4 -107 29 -27 43 -28 70 -8 18 13
16 14 -17 9 -41 -7 -69 14 -69 51 0 32 25 55 60 55 34 0 54 -29 47 -68 -7 -36
1 -52 27 -52 13 0 17 3 9 8 -8 5 -13 41 -15 97 -3 83 -15 114 -33 86z"/>
<path d="M6445 401 c-3 -6 -1 -11 4 -11 16 0 14 -167 -1 -173 -7 -3 3 -5 22
-5 19 0 29 2 23 5 -17 6 -17 85 -1 101 7 7 25 12 40 12 27 0 28 -2 28 -54 0
-34 -5 -56 -12 -59 -7 -3 3 -5 22 -5 19 0 29 2 23 5 -8 3 -13 24 -13 52 0 63
-26 91 -70 74 -28 -11 -29 -10 -32 25 -3 35 -20 53 -33 33z"/>
<path d="M6850 395 c0 -8 5 -15 10 -15 6 0 10 7 10 15 0 8 -4 15 -10 15 -5 0
-10 -7 -10 -15z"/>
<path d="M4822 388 c-7 -7 -12 -17 -12 -23 0 -7 -10 -17 -22 -23 l-23 -11 23
0 c20 -1 22 -6 22 -55 0 -49 -2 -55 -22 -59 -13 -2 6 -4 42 -4 36 0 48 2 28 4
l-38 4 0 55 0 54 36 0 c21 0 33 4 29 10 -3 6 -19 10 -36 10 -53 0 -28 35 31
43 35 4 35 4 -5 5 -23 1 -46 -3 -53 -10z"/>
<path d="M5492 388 c-7 -7 -12 -17 -12 -23 0 -7 -10 -17 -22 -23 l-23 -11 23
0 c20 -1 22 -6 22 -55 0 -49 -2 -55 -22 -59 -13 -2 6 -4 42 -4 36 0 48 2 28 4
l-38 4 0 55 0 54 36 0 c21 0 33 4 29 10 -3 6 -19 10 -36 10 -53 0 -28 35 31
43 35 4 35 4 -5 5 -23 1 -46 -3 -53 -10z"/>
<path d="M731 376 c0 -10 -9 -25 -18 -32 -17 -13 -17 -13 0 -14 14 0 17 -9 17
-48 0 -61 23 -87 69 -77 47 10 47 24 0 18 -49 -7 -59 4 -59 65 l0 42 41 0 c24
0 38 4 34 10 -3 6 -21 10 -40 10 -27 0 -34 4 -38 23 -3 17 -5 18 -6 3z"/>
<path d="M1402 330 c-42 -39 -24 -107 33 -124 26 -8 78 7 83 23 3 10 0 11 -16
2 -31 -17 -77 -13 -95 7 -10 10 -17 22 -17 25 0 4 29 7 65 7 58 0 65 2 65 19
0 24 -45 61 -74 61 -12 0 -32 -9 -44 -20z m93 -20 c18 -20 17 -20 -43 -20 -34
0 -62 2 -62 4 0 3 7 12 16 20 22 22 67 20 89 -4z"/>
<path d="M2422 330 c-42 -39 -24 -107 33 -124 26 -8 78 7 83 23 3 10 0 11 -16
2 -31 -17 -77 -13 -95 7 -10 10 -17 22 -17 25 0 4 29 7 65 7 58 0 65 2 65 19
0 24 -45 61 -74 61 -12 0 -32 -9 -44 -20z m93 -20 c18 -20 17 -20 -43 -20 -34
0 -62 2 -62 4 0 3 7 12 16 20 22 22 67 20 89 -4z"/>
<path d="M2750 330 c-37 -37 -13 -120 36 -120 8 0 24 5 35 10 16 9 19 7 19
-13 0 -30 -16 -44 -55 -50 -28 -4 -28 -4 6 -6 54 -2 69 21 69 107 0 49 4 72
12 72 9 0 9 3 0 12 -8 8 -15 8 -24 0 -9 -7 -19 -7 -28 -2 -24 15 -48 12 -70
-10z m78 -12 c7 -7 12 -24 12 -38 0 -14 -5 -31 -12 -38 -19 -19 -66 -15 -78 7
-23 44 -5 81 40 81 14 0 31 -5 38 -12z"/>
<path d="M3092 330 c-42 -39 -24 -107 33 -124 26 -8 78 7 83 23 3 10 0 11 -16
2 -31 -17 -77 -13 -95 7 -10 10 -17 22 -17 25 0 4 29 7 65 7 58 0 65 2 65 19
0 24 -45 61 -74 61 -12 0 -32 -9 -44 -20z m93 -20 c18 -20 17 -20 -43 -20 -34
0 -62 2 -62 4 0 3 7 12 16 20 22 22 67 20 89 -4z"/>
<path d="M3419 345 c0 -6 0 -34 1 -64 1 -35 -3 -57 -12 -62 -8 -6 -1 -8 22 -8
19 0 29 3 23 6 -17 6 -17 85 -1 101 17 17 65 15 72 -4 10 -26 7 -79 -6 -92 -9
-9 -5 -12 17 -11 17 0 24 3 18 6 -8 3 -13 24 -13 54 0 41 -4 51 -25 65 -20 13
-31 14 -49 6 -17 -7 -27 -7 -35 1 -6 6 -11 7 -12 2z"/>
<path d="M4446 329 c-50 -39 -22 -122 42 -122 69 0 99 80 46 122 -15 12 -34
21 -44 21 -10 0 -29 -9 -44 -21z m88 -15 c35 -34 6 -94 -45 -94 -28 0 -59 31
-59 59 0 43 72 68 104 35z"/>
<path d="M5805 340 c-16 -6 -10 -9 25 -11 33 -3 46 -9 48 -21 3 -15 -4 -18
-33 -18 -49 0 -75 -16 -75 -45 0 -32 32 -50 69 -37 15 5 41 8 57 6 16 -2 21
-1 12 2 -14 4 -18 17 -18 59 0 43 -4 56 -19 65 -23 12 -38 12 -66 0z m72 -76
c8 -22 -22 -44 -59 -44 -36 0 -49 27 -23 46 26 19 74 18 82 -2z"/>
<path d="M6146 337 c-31 -23 -16 -50 34 -62 34 -8 45 -16 45 -30 0 -27 -65
-34 -89 -10 -15 15 -16 15 -16 -6 0 -12 3 -20 6 -16 3 3 18 1 33 -4 18 -6 37
-6 55 1 22 8 27 15 24 38 -3 23 -10 29 -48 38 -56 13 -61 38 -7 42 21 2 37 -1
37 -7 0 -6 5 -11 10 -11 25 0 7 28 -21 34 -42 8 -42 8 -63 -7z"/>
<path d="M6815 341 c-3 -7 2 -11 14 -11 19 0 21 -6 21 -54 0 -52 -1 -55 -27
-59 -16 -2 4 -4 42 -4 39 0 56 2 38 4 -32 4 -32 5 -35 66 -3 55 -6 62 -25 65
-11 2 -24 -2 -28 -7z"/>
<path d="M7146 329 c-50 -39 -22 -122 42 -122 69 0 99 80 46 122 -15 12 -34
21 -44 21 -10 0 -29 -9 -44 -21z m88 -15 c35 -34 6 -94 -45 -94 -28 0 -59 31
-59 59 0 43 72 68 104 35z"/>
<path d="M7469 345 c0 -6 0 -34 1 -64 1 -35 -3 -57 -12 -62 -8 -6 -1 -8 22 -8
19 0 29 3 23 6 -17 6 -17 85 -1 101 17 17 65 15 72 -4 10 -26 7 -79 -6 -92 -9
-9 -5 -12 18 -11 16 0 23 3 17 6 -8 3 -13 24 -13 54 0 41 -4 51 -25 65 -20 13
-31 14 -49 6 -17 -7 -27 -7 -35 1 -6 6 -11 7 -12 2z"/>
</g>
</svg>
